<?xml version="1.0" encoding="iso-8859-1"?>
<!-- Generator: Adobe Illustrator 19.0.0, SVG Export Plug-In . SVG Version: 6.00 Build 0)  -->
<svg version="1.1" id="Capa_1" xmlns="http://www.w3.org/2000/svg" xmlns:xlink="http://www.w3.org/1999/xlink" x="0px" y="0px"
	 viewBox="0 0 496 496" style="enable-background:new 0 0 496 496;" xml:space="preserve">
<g>
	<g>
		<path d="M264.624,96c-70.928,0-132.272,45.648-152.648,113.576l-5.752,19.152C100.136,249.04,88.992,267.704,74,282.696
			l-7.656,7.656C64.84,291.84,64,293.872,64,296c0,2.12,0.84,4.16,2.344,5.656C90.624,325.944,104,358.232,104,392.568
			C104,418.72,125.272,440,151.432,440c12.168,0,24.248-3.048,34.944-8.816L200,423.856V488c0,4.416,3.576,8,8,8h136
			c4.424,0,8-3.584,8-8v-58.808c0-27.008,10.512-52.4,29.616-71.504C408.944,330.36,424,294.024,424,255.376
			C424,167.496,352.504,96,264.624,96z M304,480h-88v-64.76l59.792-32.192l-7.584-14.088l-89.424,48.144
			c-8.368,4.512-17.832,6.896-27.352,6.896C134.104,424,120,409.904,120,392.568c0-35.936-13.024-69.872-36.832-96.416L85.32,294
			c16.856-16.864,29.392-37.848,36.24-60.68l5.752-19.152C145.632,153.056,200.824,112,264.624,112
			c13.664,0,26.848,2.04,39.376,5.632V168h-9.536l-7.416,19.752l-19.208-8.728l-24.816,24.816l8.736,19.208L232,230.456v35.088
			l19.76,7.408l-8.736,19.208l24.816,24.816l19.208-8.728L294.464,328H304V480z M305.544,312l-6.648-17.72l-3.432-1.272
			c-1.208-0.448-2.416-0.936-3.584-1.48l-3.328-1.536l-17.24,7.832l-9.128-9.128l7.832-17.24l-1.544-3.336
			c-0.544-1.168-1.024-2.36-1.472-3.576l-1.272-3.44L248,254.456v-12.912l17.728-6.648l1.272-3.44
			c0.448-1.216,0.92-2.408,1.472-3.576l1.544-3.336l-7.832-17.24l9.128-9.128l17.24,7.832l3.328-1.536
			c1.168-0.544,2.376-1.032,3.584-1.48l3.432-1.272l6.64-17.72h12.92l6.648,17.72l3.432,1.272c1.208,0.448,2.416,0.936,3.584,1.48
			l3.328,1.536l17.24-7.832l9.128,9.128l-7.832,17.24l1.544,3.336c0.544,1.168,1.024,2.36,1.472,3.576l1.272,3.44L376,241.544
			v12.912l-17.728,6.648l-1.272,3.44c-0.448,1.216-0.92,2.408-1.472,3.576l-1.544,3.336l7.832,17.24l-9.128,9.128l-17.24-7.832
			l-3.328,1.536c-1.168,0.544-2.376,1.032-3.584,1.48l-3.432,1.272l-6.64,17.72H305.544z M370.304,346.384
			C348.176,368.496,336,397.904,336,429.192V480h-16V328h9.536l7.416-19.752l19.208,8.728l24.816-24.816l-8.736-19.208l19.76-7.408
			v-35.088l-19.76-7.408l8.736-19.208l-24.816-24.816l-19.208,8.728L329.536,168H320v-44.856c51.64,21.704,88,72.792,88,132.232
			C408,289.752,394.608,322.072,370.304,346.384z"/>
	</g>
</g>
<g>
	<g>
		<path d="M409.888,0H40C17.944,0,0,17.944,0,40c0,22.056,17.944,40,40,40h369.888l80-40L409.888,0z M72,64H40
			c-13.232,0-24-10.768-24-24s10.768-24,24-24h32V64z M400,32H120v16h280v16H88V48h16V32H88V16h312V32z M416,20.944L454.112,40
			L416,59.056V20.944z"/>
	</g>
</g>
<g>
	<g>
		<path d="M312,216c-17.648,0-32,14.352-32,32s14.352,32,32,32s32-14.352,32-32S329.648,216,312,216z M312,264
			c-8.824,0-16-7.176-16-16c0-8.824,7.176-16,16-16c8.824,0,16,7.176,16,16C328,256.824,320.824,264,312,264z"/>
	</g>
</g>
<g>
	<g>
		<path d="M472,448c-13.232,0-24,10.768-24,24s10.768,24,24,24s24-10.768,24-24S485.232,448,472,448z M472,480c-4.416,0-8-3.592-8-8
			c0-4.408,3.584-8,8-8c4.416,0,8,3.592,8,8C480,476.408,476.416,480,472,480z"/>
	</g>
</g>
<g>
	<g>
		<path d="M24,304c-13.232,0-24,10.768-24,24s10.768,24,24,24s24-10.768,24-24S37.232,304,24,304z M24,336c-4.416,0-8-3.592-8-8
			c0-4.408,3.584-8,8-8s8,3.592,8,8C32,332.408,28.416,336,24,336z"/>
	</g>
</g>
<g>
	<g>
		<rect x="16" y="384" width="16" height="16"/>
	</g>
</g>
<g>
	<g>
		<rect x="16" y="432" width="16" height="16"/>
	</g>
</g>
<g>
	<g>
		<rect x="16" y="480" width="16" height="16"/>
	</g>
</g>
<g>
	<g>
		<rect x="464" y="304" width="16" height="16"/>
	</g>
</g>
<g>
	<g>
		<rect x="464" y="352" width="16" height="16"/>
	</g>
</g>
<g>
	<g>
		<rect x="464" y="400" width="16" height="16"/>
	</g>
</g>
<g>
</g>
<g>
</g>
<g>
</g>
<g>
</g>
<g>
</g>
<g>
</g>
<g>
</g>
<g>
</g>
<g>
</g>
<g>
</g>
<g>
</g>
<g>
</g>
<g>
</g>
<g>
</g>
<g>
</g>
</svg>
