<svg height="496pt" viewBox="-28 0 496 496" width="496pt" xmlns="http://www.w3.org/2000/svg"><path d="m393.023438 331.007812c13.457031 5.488282 26.535156 11.992188 38.976562 19.769532l8.480469-13.5625c-14.222657-8.894532-29.214844-16.253906-44.671875-22.328125.167968-2.125.429687-4.246094.429687-6.398438 0-14.839843-4.039062-29.433593-11.679687-42.167969l-8.160156-13.609374c12.761718-19.816407 19.839843-43 19.839843-67.191407 0-12.847656-2.109375-25.527343-5.964843-37.640625 23.511718-14.542968 37.964843-39.863281 37.964843-67.878906 0-10.625-2.125-20.742188-5.894531-30.03125l.167969-.207031c-.113281-.089844-.230469-.160157-.335938-.25-12.015625-29.023438-40.617187-49.511719-73.9375-49.511719-32.992187 0-62.582031 20.550781-74.460937 50.808594-9.707032-1.824219-19.640625-2.808594-29.714844-2.808594h-47.636719c-10.082031 0-20.011719.984375-29.714843 2.808594-11.886719-30.257813-41.480469-50.808594-74.472657-50.808594-33.316406 0-61.917969 20.488281-73.925781 49.511719-.113281.089843-.234375.160156-.34375.25l.167969.207031c-3.769531 9.289062-5.898438 19.40625-5.898438 30.03125 0 28.015625 14.457031 53.335938 37.96875 67.871094-3.855469 12.121094-5.96875 24.800781-5.96875 37.648437 0 24.191407 7.082031 47.375 19.839844 67.191407l-8.15625 13.609374c-7.640625 12.734376-11.683594 27.320313-11.683594 42.167969 0 2.160157.265625 4.273438.433594 6.398438-15.457031 6.074219-30.449219 13.441406-44.671875 22.328125l8.480469 13.5625c12.441406-7.777344 25.519531-14.28125 38.976562-19.769532 4.527344 15.808594 13.816407 29.871094 26.558594 40.441407-15.984375 14.054687-30.617187 29.671875-43.441406 46.78125l-.734375.96875 12.800781 9.601562.726563-.96875c12.96875-17.296875 27.90625-32.960937 44.257812-46.953125 19.742188 11.335938 35.414062 29.042969 44.183594 50.066406l16.847656 40.445313c6.222656 14.945313 20.710938 24.609375 36.917969 24.609375h69.335937c16.203125 0 30.699219-9.664062 36.921875-24.617188l16.855469-40.445312c8.761719-21.027344 24.433594-38.730469 44.175781-50.066406 16.351563 13.992187 31.28125 29.664062 44.257813 46.953125l.71875.976562 12.800781-9.59375-.730469-.96875c-12.820312-17.101562-27.453125-32.71875-43.4375-46.78125 12.734375-10.570312 22.023438-24.640625 26.550782-40.449219zm-8.597657-198.230468c-4.328125-9.25-9.761719-18-16.289062-25.976563-12.425781-15.183593-27.289063-27.679687-43.777344-37.234375 12.082031-13.621094 29.425781-21.566406 47.878906-21.566406 13.289063 0 25.832031 3.984375 36.578125 11.511719 2.183594 6.441406 3.421875 13.320312 3.421875 20.488281 0 21.398438-10.476562 40.929688-27.8125 52.777344zm-49.921875-36.816406c7.6875 6.207031 14.855469 13.160156 21.257813 20.976562.207031.246094.375.519531.574219.773438-2.433594 1.433593-5.175782 2.289062-8.097657 2.289062-8.824219 0-16-7.175781-16-16 0-2.894531.851563-5.632812 2.265625-8.039062zm13.734375-79.960938c17.746094 0 33.824219 7.273438 45.425781 18.976562-6.945312-1.929687-14.144531-2.976562-21.425781-2.976562-24.4375 0-47.246093 11.207031-62.375 30.121094-6.558593-2.953125-13.3125-5.472656-20.230469-7.519532 10.023438-23.050781 32.976563-38.601562 58.605469-38.601562zm-72.414062 51.511719c-1.609375 7.136719-7.96875 12.488281-15.585938 12.488281-8.824219 0-15.992187-7.167969-16-15.992188 10.753907.015626 21.328125 1.207032 31.585938 3.503907zm-183.585938-51.511719c25.632813 0 48.585938 15.550781 58.609375 38.601562-6.917968 2.046876-13.671875 4.566407-20.230468 7.519532-15.128907-18.914063-37.9375-30.121094-62.378907-30.121094-7.277343 0-14.476562 1.046875-21.421875 2.976562 11.597656-11.703124 27.679688-18.976562 45.421875-18.976562zm40 72c0 8.824219-7.175781 16-16 16-4.964843 0-9.519531-2.335938-12.503906-6.089844 8.175781-6.878906 17.019531-12.78125 26.410156-17.644531 1.3125 2.359375 2.09375 4.992187 2.09375 7.734375zm-104-8c0-7.167969 1.242188-14.046875 3.425781-20.488281 10.742188-7.527344 23.289063-11.511719 36.574219-11.511719 18.457031 0 35.800781 7.945312 47.875 21.566406-16.480469 9.554688-31.351562 22.050782-43.777343 37.234375-6.527344 7.976563-11.960938 16.734375-16.289063 25.976563-17.328125-11.847656-27.808594-31.378906-27.808594-52.777344zm32 228.488281c0-11.945312 3.25-23.679687 9.402344-33.929687l4.832031-8.046875c4.4375 5.152343 9.183594 10.082031 14.503906 14.519531l6.152344 5.128906 10.238282-12.296875-6.152344-5.128906c-24.773438-20.644531-38.976563-50.972656-38.976563-83.214844 0-24.933593 8.699219-49.296875 24.488281-68.589843 2.328126-2.839844 4.875-5.433594 7.378907-8.066407 5.957031 6.890625 14.664062 11.136719 24.132812 11.136719 17.648438 0 32-14.351562 32-32 0-5.023438-1.292969-9.878906-3.503906-14.289062 16.289063-6.238282 33.714844-9.710938 51.679687-9.710938h31.824219c0 17.648438 14.355469 32 32 32 14.921875 0 27.386719-10.3125 30.914063-24.144531 10.703125 3.6875 20.878906 8.703125 30.421875 14.800781-3.34375 5.113281-5.335938 11.03125-5.335938 17.34375 0 17.648438 14.355469 32 32 32 6.210938 0 12.035157-1.9375 17.097657-5.167969 9.65625 16.511719 14.902343 35.414063 14.902343 54.6875 0 32.242188-14.199219 62.570313-38.972656 83.207031l-6.152344 5.128907 10.238281 12.296875 6.152344-5.128906c5.320313-4.429688 10.0625-9.359376 14.503906-14.519532l4.832032 8.046875c6.152344 10.257813 9.398437 21.984375 9.398437 33.9375 0 .28125-.054687.542969-.054687.824219-16.175782-5.234375-32.808594-8.984375-49.734375-11.105469-6.167969-24.214843-28.097657-42.207031-54.210938-42.207031-8.4375 0-16.589843 2.023438-24 5.550781v-27.871093c0-16.136719 3.738281-31.871094 10.882813-46.152344l3.367187 2.25c20.0625 13.367187 47.441407 13.367187 67.503907 0l17.34375-11.5625-7.128907-10.6875c-9.816406-14.726563-26.253906-23.527344-43.96875-23.527344-17.710937 0-34.148437 8.800781-43.964843 23.527344-13.105469 19.664062-20.035157 42.535156-20.035157 66.160156v39.199219c-2.132812 2.175781-4.046875 4.585937-5.824219 7.113281h-20.351562c-1.773438-2.527344-3.6875-4.9375-5.824219-7.113281v-39.199219c0-23.625-6.925781-46.496094-20.03125-66.160156-9.816406-14.726563-26.253906-23.527344-43.96875-23.527344-17.710937 0-34.148437 8.800781-43.964843 23.527344l-7.128907 10.6875 17.34375 11.5625c20.0625 13.367187 47.441407 13.367187 67.503907 0l3.367187-2.25c7.152344 14.28125 10.878906 30.015625 10.878906 46.152344v27.871093c-7.40625-3.527343-15.558593-5.550781-24-5.550781-26.109375 0-48.039062 17.992188-54.207031 42.207031-16.925781 2.121094-33.550781 5.863281-49.734375 11.105469 0-.28125-.058594-.550781-.058594-.824219zm236.53125 3.511719c6.488281 0 12.949219.296875 19.390625.785156-.144531 7.117188-2.214844 13.71875-5.625 19.472656-7.535156-4.128906-15.175781-8.074218-23.046875-11.570312l-6.496093 14.625c6.296874 2.800781 12.457031 5.855469 18.519531 9.085938-6.574219 4.738281-14.566407 7.601562-23.273438 7.601562-9.269531 0-18.175781-3.28125-25.277343-9.070312.109374-.1875.253906-.34375.367187-.53125l13.085937-21.824219c2.507813-4.160157 3.824219-8.925781 3.824219-13.773438 0-11.640625-7.503906-21.464843-17.886719-25.160156 7.144532-6.082031 16.273438-9.640625 25.886719-9.640625 16.585938 0 30.839844 10.160156 36.890625 24.574219-5.441406-.328125-10.890625-.574219-16.359375-.574219h-4.53125v16zm-143.777343 8.6875c-7.871094 3.496094-15.511719 7.441406-23.046876 11.570312-3.410156-5.746093-5.480468-12.355468-5.625-19.472656 6.441407-.488281 12.902344-.785156 19.390626-.785156h4.527343v-16h-4.527343c-5.472657 0-10.925782.246094-16.359376.574219 6.046876-14.414063 20.304688-24.574219 36.886719-24.574219 9.617188 0 18.746094 3.558594 25.890625 9.640625-10.386718 3.6875-17.890625 13.519531-17.890625 25.160156 0 4.847657 1.320313 9.613281 3.824219 13.785157l13.089844 21.820312c.113281.1875.246094.347656.367187.53125-7.105469 5.78125-16.007812 9.0625-25.28125 9.0625-8.703125 0-16.695312-2.863281-23.269531-7.601562 6.0625-3.222657 12.222656-6.285157 18.519531-9.085938zm88.457031-24.6875c5.949219 0 10.789062 4.839844 10.789062 10.800781 0 1.953125-.527343 3.863281-1.535156 5.542969l-13.085937 21.824219c-3.648438 6.0625-10.304688 9.832031-17.378907 9.832031-7.070312 0-13.726562-3.769531-17.367187-9.832031l-13.085938-21.824219c-1.015625-1.679688-1.546875-3.589844-1.546875-5.542969 0-5.953125 4.839844-10.800781 10.792969-10.800781zm-77.210938 72c5.472657 0 10.851563-.863281 16-2.398438v18.398438h16v-26.113281c1.609375-1.117188 3.152344-2.320313 4.640625-3.605469 5.730469 3.628906 12.417969 5.71875 19.359375 5.71875 6.945313 0 13.632813-2.089844 19.363281-5.71875 1.488282 1.285156 3.03125 2.488281 4.636719 3.605469v26.113281h16v-18.398438c5.152344 1.542969 10.53125 2.398438 16 2.398438 1.441407 0 2.859375-.113281 4.273438-.214844l-25.6875 64.214844h-69.167969l-25.6875-64.214844c1.414062.101563 2.832031.214844 4.269531.214844zm107.210938-194.144531c6.957031-8.726563 17.503906-13.855469 28.789062-13.855469 11.289063 0 21.832031 5.128906 28.792969 13.855469l-3.917969 2.617187c-14.785156 9.847656-34.96875 9.847656-49.753906 0zm-102.417969 0-3.917969 2.617187c-14.785156 9.847656-34.96875 9.847656-49.753906 0l-3.917969-2.617187c6.964844-8.726563 17.511719-13.855469 28.796875-13.855469 11.289063 0 21.832031 5.128906 28.792969 13.855469zm-106.542969 151.558593c14.917969-5.015624 30.246094-8.765624 45.878907-10.949218.417968 9.398437 3.128906 18.191406 7.632812 25.839844-10.265625 6.34375-20.167969 13.246093-29.625 20.726562-11.757812-8.917969-20.128906-21.488281-23.886719-35.617188zm231.421875 99.371094-16.855468 40.445313c-3.726563 8.96875-12.429688 14.769531-22.152344 14.769531h-69.335938c-9.71875 0-18.414062-5.800781-22.160156-14.777344l-16.847656-40.445312c-9.320313-22.378906-25.4375-41.464844-45.75-54.570313 8.128906-6.183593 16.503906-12.054687 25.238281-17.367187 4.394531 4.105468 9.425781 7.511718 14.960937 10.046875l-.199218.082031 34.015625 85.03125h90.832031l34.007812-85.03125-.199218-.082031c5.527344-2.535157 10.566406-5.941407 14.960937-10.046875 8.734375 5.320312 17.101563 11.183594 25.238281 17.367187-20.3125 13.113281-36.433593 32.191407-45.753906 54.578125zm30.570313-84.480468c4.503906-7.648438 7.222656-16.441407 7.632812-25.839844 15.628907 2.183594 30.957031 5.933594 45.878907 10.949218-3.761719 14.128907-12.128907 26.699219-23.886719 35.617188-9.457031-7.480469-19.363281-14.382812-29.625-20.726562zm0 0"/><path d="m196.238281 80h16v16h-16zm0 0"/><path d="m348.238281 144h16v16h-16zm0 0"/><path d="m228.238281 128h16v16h-16zm0 0"/><path d="m84.238281 128h16v16h-16zm0 0"/><path d="m156.238281 112h16v16h-16zm0 0"/></svg>