<?xml version="1.0" encoding="iso-8859-1"?>
<!-- Generator: Adobe Illustrator 19.0.0, SVG Export Plug-In . SVG Version: 6.00 Build 0)  -->
<svg version="1.1" id="Capa_1" xmlns="http://www.w3.org/2000/svg" xmlns:xlink="http://www.w3.org/1999/xlink" x="0px" y="0px"
	 viewBox="0 0 512 512" style="enable-background:new 0 0 512 512;" xml:space="preserve">
<g>
	<g>
		<path d="M467.949,175.667C494.42,158.709,512,129.036,512,95.334C512,42.767,469.233,0,416.667,0
			c-52.567,0-95.334,42.767-95.334,95.334c0,33.703,17.58,63.375,44.051,80.333c-11.654,7.466-21.585,17.396-29.051,29.051
			c-16.958-26.471-46.631-44.051-80.333-44.051c-33.702,0-63.375,17.58-80.333,44.051c-7.466-11.654-17.397-21.585-29.051-29.051
			c26.471-16.958,44.051-46.63,44.051-80.333C190.667,42.767,147.9,0,95.333,0C42.767,0,0,42.767,0,95.334
			c0,33.703,17.58,63.375,44.051,80.333C17.58,192.624,0,222.297,0,256v241c0,8.284,6.716,15,15,15h160.667h160.666H497
			c8.284,0,15-6.716,15-15V256C512,222.297,494.42,192.624,467.949,175.667z M30,95.334C30,59.309,59.309,30,95.333,30
			c36.025,0,65.334,29.309,65.334,65.334c0,36.025-29.309,65.333-65.334,65.333C59.309,160.667,30,131.358,30,95.334z
			 M160.667,416.666V482H30V256c0-36.025,29.309-65.333,65.333-65.333c36.025,0,65.334,29.309,65.334,65.333V416.666z
			 M190.667,325.359c4.324,4.076,9.026,7.756,14.051,10.975c-5.024,3.219-9.727,6.898-14.051,10.975V325.359z M321.333,482H190.667
			v-65.334c0-36.024,29.309-65.332,65.333-65.332s65.333,29.308,65.333,65.332V482z M321.333,347.309
			c-4.324-4.076-9.026-7.756-14.051-10.975c5.024-3.219,9.727-6.899,14.051-10.975V347.309z M256,321.334
			c-36.024,0-65.333-29.309-65.333-65.334c0-36.025,29.309-65.333,65.333-65.333s65.333,29.309,65.333,65.333
			C321.333,292.025,292.024,321.334,256,321.334z M351.333,95.334c0-36.025,29.309-65.334,65.334-65.334
			C452.691,30,482,59.309,482,95.334c0,36.025-29.309,65.333-65.333,65.333C380.642,160.667,351.333,131.358,351.333,95.334z
			 M482,482H351.333v-65.334V256c0-36.025,29.309-65.333,65.334-65.333C452.691,190.667,482,219.975,482,256V482z"/>
	</g>
</g>
<g>
	<g>
		<path d="M128.66,107.449c-5.859-5.858-15.354-5.858-21.214,0.001c-3.234,3.235-7.537,5.017-12.113,5.017
			s-8.879-1.782-12.113-5.017c-5.858-5.859-15.355-5.859-21.214-0.001c-5.858,5.858-5.858,15.355-0.001,21.213
			c8.901,8.902,20.738,13.805,33.328,13.805s24.427-4.902,33.328-13.805C134.518,122.804,134.517,113.307,128.66,107.449z"/>
	</g>
</g>
<g>
	<g>
		<path d="M75.89,60.63c-2.79-2.8-6.649-4.4-10.6-4.4c-3.951,0-7.82,1.6-10.61,4.4c-2.79,2.79-4.39,6.65-4.39,10.6
			s1.6,7.82,4.39,10.61c2.79,2.79,6.66,4.39,10.61,4.39c3.939,0,7.81-1.6,10.6-4.39c2.79-2.79,4.391-6.66,4.391-10.61
			S78.68,63.42,75.89,60.63z"/>
	</g>
</g>
<g>
	<g>
		<path d="M135.98,60.63c-2.791-2.8-6.65-4.4-10.6-4.4s-7.82,1.6-10.61,4.4c-2.79,2.79-4.39,6.65-4.39,10.6s1.6,7.82,4.39,10.61
			c2.79,2.79,6.66,4.39,10.61,4.39s7.81-1.6,10.6-4.39c2.801-2.8,4.4-6.66,4.4-10.61C140.38,67.29,138.78,63.42,135.98,60.63z"/>
	</g>
</g>
<g>
	<g>
		<path d="M449.994,107.449c-5.859-5.858-15.354-5.858-21.214,0.001c-3.234,3.235-7.537,5.017-12.113,5.017
			c-4.576,0-8.879-1.782-12.113-5.017c-5.858-5.859-15.355-5.859-21.214-0.001c-5.857,5.858-5.858,15.355-0.001,21.213
			c8.901,8.902,20.738,13.805,33.328,13.805c12.59,0,24.427-4.902,33.328-13.805C455.852,122.804,455.852,113.307,449.994,107.449z"
			/>
	</g>
</g>
<g>
	<g>
		<path d="M397.229,60.63c-2.8-2.8-6.66-4.4-10.609-4.4c-3.95,0-7.81,1.6-10.61,4.4c-2.79,2.79-4.39,6.65-4.39,10.6
			s1.6,7.82,4.39,10.61c2.8,2.79,6.66,4.39,10.61,4.39c3.949,0,7.81-1.6,10.609-4.39c2.79-2.79,4.391-6.66,4.391-10.61
			S400.019,63.42,397.229,60.63z"/>
	</g>
</g>
<g>
	<g>
		<path d="M457.319,60.62c-2.799-2.79-6.659-4.39-10.609-4.39s-7.811,1.6-10.601,4.39c-2.8,2.8-4.399,6.66-4.399,10.61
			s1.6,7.82,4.399,10.61c2.79,2.79,6.65,4.39,10.601,4.39c3.951,0,7.82-1.6,10.609-4.39c2.79-2.79,4.391-6.66,4.391-10.61
			S460.109,63.42,457.319,60.62z"/>
	</g>
</g>
<g>
	<g>
		<path d="M289.327,268.116c-5.857-5.858-15.355-5.858-21.213,0c-6.68,6.68-17.549,6.68-24.229,0
			c-5.857-5.858-15.355-5.858-21.212,0c-5.858,5.858-5.858,15.355,0,21.213c9.188,9.189,21.258,13.783,33.327,13.783
			c12.069,0,24.139-4.594,33.327-13.783C295.185,283.471,295.185,273.974,289.327,268.116z"/>
	</g>
</g>
<g>
	<g>
		<path d="M236.559,221.29c-2.79-2.79-6.66-4.39-10.609-4.39c-3.95,0-7.811,1.6-10.601,4.39s-4.399,6.66-4.399,10.61
			c0,3.95,1.609,7.82,4.399,10.61c2.791,2.79,6.661,4.39,10.601,4.39c3.949,0,7.819-1.6,10.609-4.39
			c2.79-2.8,4.391-6.66,4.391-10.61C240.95,227.95,239.349,224.09,236.559,221.29z"/>
	</g>
</g>
<g>
	<g>
		<path d="M296.65,221.29c-2.79-2.79-6.659-4.39-10.6-4.39c-3.95,0-7.82,1.6-10.61,4.39s-4.39,6.66-4.39,10.61
			c0,3.95,1.6,7.81,4.39,10.61c2.789,2.79,6.66,4.39,10.61,4.39c3.94,0,7.81-1.6,10.6-4.39c2.79-2.8,4.391-6.66,4.391-10.61
			C301.041,227.95,299.441,224.08,296.65,221.29z"/>
	</g>
</g>
<g>
</g>
<g>
</g>
<g>
</g>
<g>
</g>
<g>
</g>
<g>
</g>
<g>
</g>
<g>
</g>
<g>
</g>
<g>
</g>
<g>
</g>
<g>
</g>
<g>
</g>
<g>
</g>
<g>
</g>
</svg>
