<?xml version="1.0" encoding="iso-8859-1"?>
<!-- Generator: Adobe Illustrator 19.0.0, SVG Export Plug-In . SVG Version: 6.00 Build 0)  -->
<svg version="1.1" id="Capa_1" xmlns="http://www.w3.org/2000/svg" xmlns:xlink="http://www.w3.org/1999/xlink" x="0px" y="0px"
	 viewBox="0 0 512 512" style="enable-background:new 0 0 512 512;" xml:space="preserve">
<g>
	<g>
		<path d="M256,366c-5.52,0-10,4.48-10,10c0,5.52,4.48,10,10,10s10-4.48,10-10C266,370.48,261.52,366,256,366z"/>
	</g>
</g>
<g>
	<g>
		<path d="M482,106h-20h-36V81c0-9.353-3.641-18.144-10.248-24.75C409.144,49.641,400.353,46,391,46
			c-6.042,0-11.732,1.54-16.697,4.247C369.754,36.194,356.548,26,341,26c-9.779,0-18.63,4.036-24.987,10.525
			c-0.089-0.091-0.172-0.185-0.261-0.275C309.144,29.641,300.353,26,291,26c-9.786,0-18.642,4.042-25,10.539
			C259.642,30.042,250.786,26,241,26c-19.299,0-35,15.701-35,35v45H90c-0.016,0-0.031,0.003-0.047,0.003
			c-0.341,0.002-0.682,0.023-1.021,0.059c-0.113,0.012-0.224,0.033-0.336,0.048c-0.247,0.035-0.493,0.076-0.738,0.13
			c-0.118,0.026-0.235,0.056-0.352,0.086c-0.243,0.062-0.483,0.134-0.721,0.215c-0.105,0.036-0.21,0.07-0.314,0.11
			c-0.262,0.099-0.519,0.211-0.773,0.332c-0.056,0.027-0.115,0.045-0.17,0.073l-0.163,0.082c-0.007,0.004-0.014,0.007-0.021,0.011
			L5.528,147.056C2.14,148.75,0,152.212,0,156c0,3.788,2.14,7.25,5.528,8.944l79.814,39.907c0.009,0.005,0.018,0.009,0.027,0.014
			l0.159,0.079c0.054,0.027,0.111,0.045,0.165,0.071c0.257,0.123,0.517,0.236,0.782,0.336c0.101,0.038,0.203,0.072,0.305,0.107
			c0.242,0.082,0.486,0.155,0.733,0.219c0.113,0.029,0.226,0.058,0.34,0.083c0.251,0.055,0.503,0.097,0.756,0.133
			c0.106,0.015,0.211,0.034,0.317,0.046C89.283,205.976,89.641,206,90,206h70.571c3.5,9.215,8.916,17.628,15.928,24.642
			l34.86,34.859C220.8,274.942,226,287.496,226,300.85V326h-10c-5.523,0-10,4.478-10,10v140c0,5.522,4.477,10,10,10h200
			c5.522,0,10-4.478,10-10V336c0-5.522-4.478-10-10-10h-10v-27.64c0-12.379,2.784-24.848,8.049-36.053
			C422.091,245.216,426,229.587,426,214.53V206h36h20c16.542,0,30-13.458,30-30v-40C512,119.458,498.542,106,482,106z M376,81
			c0-8.271,6.729-15,15-15c4.01,0,7.777,1.56,10.609,4.393C404.44,73.223,406,76.99,406,81v50c0,8.271-6.729,15-15,15
			s-15-6.729-15-15V81z M326,116V61c0-8.271,6.729-15,15-15s15,6.729,15,15v20v50c0,8.271-6.729,15-15,15s-15-6.729-15-15V116z
			 M276,61c0-8.271,6.729-15,15-15c4.01,0,7.777,1.56,10.609,4.393C304.44,53.223,306,56.99,306,61v45h-30V61z M226,61
			c0-8.271,6.729-15,15-15s15,6.729,15,15v45h-30V61z M87.525,183.582L32.361,156l55.164-27.582
			C99.553,144.76,99.553,167.24,87.525,183.582z M156,176v5.15c0,1.618,0.062,3.236,0.175,4.85h-46.763
			c9.478-18.807,9.478-41.193,0-60h67.599c-2.513,2.47-4.863,5.136-7.012,8.001C160.972,146.041,156,160.957,156,176z M406,466H226
			V346h10h160h10V466z M406,214.53c0,12.049-3.287,24.892-10.051,39.268C389.44,267.651,386,283.062,386,298.36V326H246v-25.15
			c0-18.696-7.28-36.272-20.499-49.491l-34.86-34.858c-6.343-6.344-10.866-14.287-13.083-22.978
			c-1.034-4.043-1.558-8.206-1.558-12.372V176c0-10.745,3.552-21.399,10-30c7.754-10.339,19.037-17.198,31.774-19.315
			C220.498,126.23,223.266,126,226,126h40h38.74c-1.759,6.853-5.323,13.141-10.461,18.279C286.721,151.837,276.678,156,266,156h-30
			c-5.188,0-9.515,3.968-9.962,9.136c-0.448,5.169,3.131,9.822,8.241,10.715c16.519,2.887,30.895,12.069,40.48,25.857
			c0.022,0.031,0.048,0.058,0.07,0.089c7.175,10.374,11.004,22.528,11.071,35.155l0.1,19.1c0.029,5.506,4.5,9.948,9.999,9.948
			c0.018,0,0.035,0,0.053,0c5.523-0.029,9.977-4.529,9.948-10.052l-0.1-19.101c-0.057-10.692-2.165-21.124-6.162-30.848H406V214.53z
			 M452,186H287.989c-3.212-4.047-6.757-7.749-10.593-11.075c11.681-2.235,22.426-7.904,31.023-16.504
			c1.836-1.836,3.524-3.779,5.088-5.799C319.923,160.76,329.858,166,341,166c9.786,0,18.642-4.042,25-10.539
			c6.358,6.496,15.214,10.539,25,10.539c19.299,0,35-15.701,35-35v-5h26V186z M492,176c0,5.514-4.486,10-10,10h-10v-60h10
			c5.514,0,10,4.486,10,10V176z"/>
	</g>
</g>
<g>
	<g>
		<path d="M376,366h-80c-5.522,0-10,4.478-10,10c0,5.522,4.478,10,10,10h80c5.522,0,10-4.478,10-10C386,370.478,381.522,366,376,366
			z"/>
	</g>
</g>
<g>
</g>
<g>
</g>
<g>
</g>
<g>
</g>
<g>
</g>
<g>
</g>
<g>
</g>
<g>
</g>
<g>
</g>
<g>
</g>
<g>
</g>
<g>
</g>
<g>
</g>
<g>
</g>
<g>
</g>
</svg>
